<?xml version="1.0" encoding="UTF-8" standalone="no"?><!-- Uploaded to: SVG Repo, www.svgrepo.com, Transformed by: SVG Repo Mixer Tools -->

<svg width="800px" height="800px" viewBox="-2.4 -2.4 28.80 28.80" fill="none" version="1.1"
    id="svg1" sodipodi:docname="vibration-svgrepo-com.svg"
    inkscape:version="1.3.2 (091e20ef0f, 2023-11-25)"
    xmlns:inkscape="http://www.inkscape.org/namespaces/inkscape"
    xmlns:sodipodi="http://sodipodi.sourceforge.net/DTD/sodipodi-0.dtd"
    xmlns="http://www.w3.org/2000/svg" xmlns:svg="http://www.w3.org/2000/svg">
    <defs id="defs1" />
    <sodipodi:namedview id="namedview1" pagecolor="#ffffff" bordercolor="#000000"
        borderopacity="0.25" inkscape:showpageshadow="2" inkscape:pageopacity="0.0"
        inkscape:pagecheckerboard="0" inkscape:deskcolor="#d1d1d1" inkscape:zoom="1.005"
        inkscape:cx="306.96517" inkscape:cy="416.91542" inkscape:window-width="1920"
        inkscape:window-height="1008" inkscape:window-x="0" inkscape:window-y="0"
        inkscape:window-maximized="1" inkscape:current-layer="svg1" />
    <g id="SVGRepo_bgCarrier" stroke-width="0" />
    <g id="SVGRepo_tracerCarrier" stroke-linecap="round" stroke-linejoin="round" stroke="#CCCCCC"
        stroke-width="0.624" />
    <g id="SVGRepo_iconCarrier" style="stroke-width:1.345608;stroke-dasharray:none">
        <path
            d="M 2,6 3.06051,7.11942 C 3.58133,7.66918 3.56352,8.53546 3.02055,9.06335 L 3,9.08333 C 2.45233,9.61579 2.45233,10.4953 3,11.0278 v 0 c 0.54767,0.5324 0.54767,1.412 0,1.9444 v 0 c -0.54767,0.5325 -0.54767,1.412 0,1.9445 l 0.02055,0.0199 c 0.54296,0.5279 0.56077,1.3942 0.03995,1.944 L 2,18 M 22,6 20.9395,7.11942 c -0.5208,0.54976 -0.503,1.41604 0.0399,1.94393 L 21,9.08333 c 0.5477,0.53246 0.5477,1.41197 0,1.94447 v 0 c -0.5477,0.5324 -0.5477,1.412 0,1.9444 v 0 c 0.5477,0.5325 0.5477,1.412 0,1.9445 l -0.0205,0.0199 c -0.543,0.5279 -0.5608,1.3942 -0.04,1.944 L 22,18"
            stroke="#000000" stroke-width="2" stroke-linecap="round" stroke-linejoin="round"
            id="path1" sodipodi:nodetypes="ccssssssccccccccsssscccc"
            style="stroke-width:1.345608;stroke-dasharray:none" />
    </g>
    <g id="g5" transform="matrix(0.03714865,0,0,0.03714865,2.4899642,2.4899828)">
        <path class="st0"
            d="m 329.368,237.908 42.55,-39.905 c 25.237,-23.661 39.56,-56.701 39.56,-91.292 V 49.156 C 411.487,35.642 405.94,23.238 397.076,14.402 388.24,5.529 375.828,-0.009 362.314,0 H 149.677 c -13.514,-0.009 -25.918,5.529 -34.754,14.401 -8.872,8.837 -14.41,21.24 -14.402,34.754 v 57.554 c 0,34.591 14.315,67.632 39.552,91.292 l 42.55,39.888 c 2.352,2.205 3.678,5.272 3.678,8.493 v 19.234 c 0,3.221 -1.326,6.279 -3.67,8.475 l -42.558,39.905 c -25.237,23.653 -39.552,56.702 -39.552,91.292 v 57.554 c -0.009,13.514 5.529,25.918 14.402,34.755 8.836,8.871 21.24,14.409 34.754,14.401 h 212.636 c 13.514,0.008 25.926,-5.53 34.763,-14.401 8.863,-8.838 14.41,-21.241 14.402,-34.755 v -57.554 c 0,-34.59 -14.324,-67.64 -39.56,-91.292 L 329.368,274.1 c -2.344,-2.205 -3.678,-5.263 -3.678,-8.484 v -19.234 c 0,-3.22 1.335,-6.287 3.678,-8.474 z m 44.574,224.936 c -0.009,3.273 -1.266,6.055 -3.403,8.218 -2.162,2.135 -4.952,3.402 -8.226,3.41 H 149.677 c -3.273,-0.009 -6.055,-1.275 -8.225,-3.41 -2.128,-2.163 -3.394,-4.945 -3.402,-8.218 V 405.29 c 0,-24.212 10.026,-47.356 27.691,-63.91 l 42.55,-39.906 c 9.914,-9.285 15.538,-22.274 15.538,-35.857 v -19.234 c 0,-13.592 -5.624,-26.58 -15.547,-35.866 L 165.741,170.621 C 148.075,154.066 138.05,130.931 138.05,106.711 V 49.156 c 0.008,-3.273 1.274,-6.055 3.402,-8.226 2.17,-2.127 4.952,-3.394 8.225,-3.402 h 212.636 c 3.273,0.009 6.064,1.275 8.226,3.402 2.136,2.171 3.394,4.952 3.403,8.226 v 57.554 c 0,24.22 -10.026,47.355 -27.683,63.91 l -42.55,39.896 c -9.922,9.286 -15.547,22.274 -15.547,35.866 v 19.234 c 0,13.583 5.625,26.572 15.547,35.874 l 42.55,39.88 c 17.658,16.563 27.683,39.707 27.683,63.918 z"
            id="path1-7" style="fill:#000000" />

        <path class="st0"
            d="m 256,248.674 c 10.017,0 18.131,-8.122 18.131,-18.139 3.032,-12.051 9.397,-23.161 18.578,-31.757 l 42.542,-39.888 c 13.592,-12.739 21.602,-30.448 22.446,-48.984 H 154.302 c 0.844,18.536 8.854,36.245 22.438,48.984 l 42.541,39.888 c 9.19,8.596 15.547,19.706 18.579,31.757 10e-4,10.017 8.123,18.139 18.14,18.139 z"
            id="path2" style="fill:#000000" />

        <path class="st0"
            d="m 256,267.796 c -10.017,0 -18.139,8.122 -18.139,18.139 0,10.009 8.122,18.131 18.139,18.131 10.017,0 18.131,-8.122 18.131,-18.131 0,-10.017 -8.114,-18.139 -18.131,-18.139 z"
            id="path3" style="fill:#000000" />

        <path class="st0"
            d="m 256,332.137 c -10.017,0 -18.139,8.122 -18.139,18.14 0,10.009 8.122,18.131 18.139,18.131 10.017,0 18.131,-8.122 18.131,-18.131 0,-10.018 -8.114,-18.14 -18.131,-18.14 z"
            id="path4" style="fill:#000000" />

        <path class="st0"
            d="m 239.876,389.742 -66.538,66.538 h 165.315 l -66.537,-66.538 c -8.906,-8.897 -23.334,-8.897 -32.24,0 z"
            id="path5" style="fill:#000000" />

    </g>
</svg>
